<?xml version="1.0" encoding="UTF-8" standalone="no"?>
<svg
        width="70"
        height="70"
        version="1.0"
        viewBox="0 0 62.574489 68.063955"
        id="svg77"
        sodipodi:docname="black king.svg"
        inkscape:version="1.1.2 (0a00cf5339, 2022-02-04)"
        xmlns:inkscape="http://www.inkscape.org/namespaces/inkscape"
        xmlns:sodipodi="http://sodipodi.sourceforge.net/DTD/sodipodi-0.dtd"
        xmlns="http://www.w3.org/2000/svg"
>
  <defs
     id="defs14" />
  <sodipodi:namedview
     id="namedview12"
     pagecolor="#ffffff"
     bordercolor="#666666"
     borderopacity="1.0"
     inkscape:pageshadow="2"
     inkscape:pageopacity="0.0"
     inkscape:pagecheckerboard="0"
     showgrid="false"
     inkscape:zoom="11.552385"
     inkscape:cx="31.032553"
     inkscape:cy="45.921254"
     inkscape:window-width="1846"
     inkscape:window-height="1016"
     inkscape:window-x="0"
     inkscape:window-y="0"
     inkscape:window-maximized="1"
     inkscape:current-layer="svg77" />
  <g
     id="g40"
     transform="translate(3.5200067,2.2445077)">
    <path
       d="m 25.731,2 c -0.6,1.1 -2,2 -3,2 -2.6,0 -2.6,2.2 0,4.5 2.6,2.3 2.5,3.1 -0.5,6.7 -1.4,1.6 -2.5,4.1 -2.5,5.4 0,2.4 -0.1,2.4 -3,0.9 -1.6,-0.8 -5,-1.5 -7.6,-1.5 -3.9,0 -5.1,0.5 -8,3.4 -4.9,4.9 -4.8,9.9 0.6,18.1 3.1,4.8 4.3,7.9 5.3,13.6 l 1.2,7.4 5,1.8 c 6.7,2.3 26.3,1.9 31.2,-0.6 3.3,-1.7 3.4,-2 4.7,-12.1 0.3,-2.2 2.1,-6.3 4.1,-9.2 6.2,-8.9 6.3,-14.9 0.4,-19.8 -3.6,-3.1 -10.2,-3.5 -14.9,-1.1 -2.9,1.5 -3,1.5 -3,-0.9 0,-1.3 -1.1,-3.8 -2.5,-5.4 -3,-3.6 -3.1,-4.8 -0.5,-6.2 2.5,-1.3 2.7,-5 0.2,-5 -0.9,0 -2.3,-0.9 -3,-2 -0.7,-1.1 -1.6,-2 -2.2,-2 -0.5,0 -1.4,0.9 -2,2 z"
       id="path4036"
       style="stroke-width:0.972342" />
    <path
       d="m 16.131,25.3 c 4.6,2.6 7.8,7.4 8.6,13.1 0.8,6.4 5.9,6.1 6,-0.3 0,-4.3 4.6,-10.7 9.3,-13 5.4,-2.6 7.7,-2.6 11.1,0 3.6,2.9 3.5,8 -0.3,14.1 -1.6,2.6 -3.8,5.1 -4.8,5.6 -1,0.6 -9.2,1 -18.3,1 -9.1,0 -17.3,-0.4 -18.3,-1 -1,-0.5 -3.2,-3 -4.8,-5.6 -3.8,-6.1 -3.9,-11.2 -0.3,-14.1 3.4,-2.7 6.9,-2.6 11.8,0.2 z"
       id="path3"
       style="fill:#ffffff;stroke-width:0.972342" />
    <path
       d="m 41.531015,56 c 0.9,0.5 1.50001,1 1.20001,1.1 -0.30001,0.1 -6.9,0.3 -14.799999,0.4 -16.6,0.2 -19.5000004,-0.8 -8.2,-2.9 3.9,-0.7 19.999989,0.3 21.799989,1.4 z"
       id="path5"
       style="fill:#ffffff;stroke-width:0.972342" />
    <path
       d="m 5.5310256,27.1 c -3.3,1.9 -1.9,8.5 2.7,13.1 4.9000004,4.9 14.5000004,5.1 14.5000004,0.2 0,-9.3 -10.3,-17.3 -17.2000004,-13.3 z"
       id="path7"
       style="stroke-width:0.972342" />
    <path
       d="m 41.031,27 c -4.4,1.9 -8.3,8.2 -8.3,13.3 0,5.4 9.9,4.9 14.9,-0.8 5.3,-6 5.5,-11.1 0.5,-13.1 -2.6,-1.1 -3.6,-1 -7.1,0.6 z"
       id="path9"
       style="stroke-width:0.972342" />
  </g>
</svg>
