<?xml version="1.0" encoding="UTF-8" standalone="no"?>
<svg
        width="70"
        height="70"
        version="1.0"
        viewBox="0 0 62.574489 68.063955"
        id="svg77"
        sodipodi:docname="black queen.svg"
        inkscape:version="1.1.2 (0a00cf5339, 2022-02-04)"
        xmlns:inkscape="http://www.inkscape.org/namespaces/inkscape"
        xmlns:sodipodi="http://sodipodi.sourceforge.net/DTD/sodipodi-0.dtd"
        xmlns="http://www.w3.org/2000/svg"
>
  <defs
     id="defs20" />
  <sodipodi:namedview
     id="namedview18"
     pagecolor="#ffffff"
     bordercolor="#666666"
     borderopacity="1.0"
     inkscape:pageshadow="2"
     inkscape:pageopacity="0.0"
     inkscape:pagecheckerboard="0"
     showgrid="false"
     inkscape:zoom="11.727315"
     inkscape:cx="35.685918"
     inkscape:cy="62.290473"
     inkscape:window-width="1846"
     inkscape:window-height="1016"
     inkscape:window-x="0"
     inkscape:window-y="0"
     inkscape:window-maximized="1"
     inkscape:current-layer="svg77" />
  <g
     id="g49"
     transform="matrix(0.9816539,0,0,1,1.0276002e-7,3.226301)">
    <path
       d="m 28.371971,2.2376537 c -2.1,2.1 -2.3,2.9 -1.5,5.1 1.1,2.9000003 1.2,15.2000003 0.1,20.0000003 -0.6,2.9 -0.7,2.8 -3.1,-3 -1.5,-3.6 -2.6,-8.2 -2.6,-11.5 -0.20001,-7.9000003 -0.20001,-7.8000003 -2.5,-9.0000003 -3,-1.7 -6.8,-0.4 -8,2.7 -0.8000004,2.2 -0.6,3.2 1.29999,5.7000003 1.70001,2.3 2.30001,4.8 2.60001,9.8 0.5,7.7 -0.5,8.5 -3.9,3.6 -1.5000004,-2.1 -2.3000004,-4.7 -2.4000004,-7.9 -0.1,-5.6 -1.7,-7.9000003 -5.6,-7.9000003 -4,0 -6.7,4.0000003 -5.1,7.6000003 0.69999,1.3 1.89999997,2.7 2.69999997,3 0.80000003,0.4 1.50000003,1.6 1.50000003,2.8 0,1.1 0.9,5.6 1.9,9.8 1.4,5.8 2.8,8.8 5.5,12 4.1000004,4.8 4.1000004,4.8 2.0000004,10.5 -1.3000004,3.4 -1.4000004,4.6 -0.5,5.7 1.9,2.2 10.1,3.6 21.4,3.6 11.8,-0.1 18.3,-1.1 20.5,-3.3 1.4,-1.4 1.4,-2 -0.1,-5.9 -2.2,-5.8 -2.2,-5.8 1.89999,-10.6 2.7,-3.2 4.00001,-6.1 5.50001,-12.3 0.99999,-4.4 1.89999,-8.9 1.89999,-9.9 0,-1 0.7,-2 1.50001,-2.4 0.79999,-0.3 2,-1.7 2.7,-3 1.6,-3.6 -1.1,-7.6000003 -5.10001,-7.6000003 -3.89999,0 -5.49999,2.3000003 -5.6,7.9000003 -0.1,3.2 -0.9,5.8 -2.4,7.9 -3.49999,4.9 -4.39999,4.1 -3.9,-3.6 0.20001,-5.1 0.9,-7.5 2.60001,-9.7 4.8,-6.0000003 -2.4,-12.9000003 -7.90001,-7.4000003 -1.6,1.6 -1.9,2.8 -1.4,5.7000003 0.60001,3.8 -2.59999,16.5 -4.5,17.7 -2.09999,1.3 -2.59999,-17.3 -0.59999,-21.7000003 0.5,-1.2 0,-2.5 -1.8,-4.3 -3.1,-3.1 -4.10001,-3.1 -7.1,-0.1 z"
       id="path4552"
       style="stroke-width:0.972342" />
    <path
       d="m 46.271971,52.437654 c 0.9,0.3 1.6,1.2 1.6,1.8 0,1 -4,1.3 -16,1.3 -15.30001,0 -18.7,-0.7 -13.7,-2.7 2.5,-1 25.7,-1.3 28.1,-0.4 z"
       id="path3"
       style="fill:#ffffff;stroke-width:0.972342" />
    <path
       d="m 48.171971,40.937654 c 1,0.6 1.6,1.3 1.3,1.7 -0.9,0.8 -34.70001,0.9 -35.2,0 -1.4,-2.2 9.4,-3.8 22,-3.2 5.5,0.3 10.8,1 11.9,1.5 z"
       id="path5"
       style="fill:#ffffff;stroke-width:0.972342" />
    <path
       d="m 62.671971,15.037654 c -0.2,1.3 -1,2.3 -1.8,2.3 -0.8,0 -1.60001,-1 -1.8,-2.3 -0.3,-1.7 0.19999,-2.2 1.8,-2.2 1.6,0 2.1,0.5 1.8,2.2 z"
       id="path7"
       style="fill:#ffffff;stroke-width:0.972342" />
    <path
       d="m 4.6719706,15.037654 c -0.2,1.3 -1,2.3 -1.80001,2.3 -0.79999,0 -1.59999,-1 -1.8,-2.3 -0.29999003,-1.7 0.20001,-2.2 1.8,-2.2 1.60001,0 2.10001,0.5 1.80001,2.2 z"
       id="path9"
       style="fill:#ffffff;stroke-width:0.972342" />
    <path
       d="m 49.871971,8.8376537 c 0,1.3000003 -0.7,2.0000003 -2,2.0000003 -1.3,0 -2,-0.7 -2,-2.0000003 0,-1.3 0.7,-2 2,-2 1.3,0 2,0.7 2,2 z"
       id="path11"
       style="fill:#ffffff;stroke-width:0.972342" />
    <path
       d="m 17.871971,8.8376537 c 0,1.3000003 -0.7,2.0000003 -2,2.0000003 -1.3,0 -2.00001,-0.7 -2.00001,-2.0000003 0,-1.3 0.70001,-2 2.00001,-2 1.3,0 2,0.7 2,2 z"
       id="path13"
       style="fill:#ffffff;stroke-width:0.972342" />
    <path
       d="m 33.871961,5.8376537 c 0,1.3 -0.69999,2 -1.99999,2 -1.3,0 -2,-0.7 -2,-2 0,-1.3 0.7,-2 2,-2 1.3,0 1.99999,0.7 1.99999,2 z"
       id="path15"
       style="fill:#ffffff;stroke-width:0.972342" />
  </g>
</svg>
