<?xml version="1.0" encoding="UTF-8" standalone="no"?>
<svg
        width="70"
        height="70"
        version="1.0"
        viewBox="0 0 62.574489 68.063955"
        id="svg77"
        sodipodi:docname="black bishop.svg"
        inkscape:version="1.1.2 (0a00cf5339, 2022-02-04)"
        xmlns:inkscape="http://www.inkscape.org/namespaces/inkscape"
        xmlns:sodipodi="http://sodipodi.sourceforge.net/DTD/sodipodi-0.dtd"
        xmlns="http://www.w3.org/2000/svg"
>
  <defs
     id="defs14" />
  <sodipodi:namedview
     id="namedview12"
     pagecolor="#ffffff"
     bordercolor="#666666"
     borderopacity="1.0"
     inkscape:pageshadow="2"
     inkscape:pageopacity="0.0"
     inkscape:pagecheckerboard="0"
     showgrid="false"
     width="71px"
     inkscape:zoom="9.2111911"
     inkscape:cx="41.09132"
     inkscape:cy="33.491868"
     inkscape:window-width="1846"
     inkscape:window-height="1016"
     inkscape:window-x="0"
     inkscape:window-y="0"
     inkscape:window-maximized="1"
     inkscape:current-layer="svg77" />
  <g
     id="g545"
     transform="translate(2.1650928)">
    <path
       d="m 25.380986,1.0227028 c -2.80001,1.3744742 -3.8,5.0070036 -2.3,8.2468456 1,2.1598876 0.8,2.5525956 -1.40001,3.3380096 -4.5,1.669004 -10.39999,7.854138 -11.59999,11.97755 -1.3000001,4.810661 -0.6000001,7.85415 2.8,13.057517 2.29999,3.436175 2.49999,4.221599 1.5,7.755961 -1.1,4.2216 -0.3,6.479665 2.4,6.479665 0.8,0 1.4,0.392706 1.4,0.88359 0,1.079944 -6.5,1.963535 -12.3000004,1.767182 -4.6,-0.09818 -9.3000001,3.730716 -8.3000001,6.970548 1.1000001,3.436175 5.5000001,7.363254 6.9000001,6.283301 0.7,-0.589052 5.0000003,-1.570818 9.6000004,-2.061702 4.89999,-0.58907 9.8,-1.865368 11.8,-3.043479 3.3,-1.865358 3.3,-1.865358 6.59999,0 1.8,1.079945 6.90001,2.258055 11.60001,2.847126 4.59999,0.58906 9,1.570827 9.7,2.159887 1,0.785405 1.9,0.392707 3.8,-1.570827 3.89999,-4.123422 4.2,-6.283321 1.19999,-9.130447 -1.89999,-1.963533 -3.49999,-2.552584 -6.3,-2.454407 -5.79999,0.196353 -12.29999,-0.687238 -12.29999,-1.767182 0,-0.490884 0.59999,-0.88359 1.4,-0.88359 2.7,0 3.6,-2.356252 2.5,-6.577852 -1,-3.534362 -0.80001,-4.417952 1.39999,-7.755961 1.4,-2.159888 2.90001,-5.007014 3.2,-6.381488 1.60001,-6.381488 -3.89999,-15.217394 -11.19999,-18.260872 -2.9,-1.079934 -3.20001,-1.570828 -2.30001,-3.2398227 1.70001,-3.0434788 1.1,-5.5960836 -1.6,-7.7559619 -2.9,-2.25807464 -4.79999,-2.45441829 -8.19999,-0.8835906 z"
       id="path4900"
       style="stroke-width:0.963437" />
    <path
       d="m 38.580986,44.741696 c 1,1.5 -2.1,2.09999 -10.40001,2.09999 -7.29999,0 -9.89999,-0.79999 -8.3,-2.39999 1.00001,-0.9 18.10001,-0.7 18.70001,0.3 z"
       id="path3"
       style="fill:#ffffff;stroke-width:0.972342" />
    <path
       d="m 38.580986,38.741686 c 0.9,1.40001 -2.1,2.10001 -9.4,2.10001 -7.1,0 -10,-0.6 -10,-2.10001 0,-1.19999 18.69999,-1.19999 19.4,0 z"
       id="path5"
       style="fill:#ffffff;stroke-width:0.972342" />
    <path
       d="m 31.180986,21.841685 c 0,1.10001 0.7,2.00001 1.49999,2.00001 0.80001,0 1.50001,0.9 1.50001,2 0,1.1 -0.7,2 -1.50001,2 -0.9,0 -1.49999,0.9 -1.49999,2.5 0,1.8 -0.50001,2.500001 -2,2.500001 -1.5,0 -2,-0.700001 -2,-2.500001 0,-1.6 -0.6,-2.5 -1.5,-2.5 -0.8,0 -1.50001,-0.9 -1.50001,-2 0,-1.1 0.70001,-2 1.50001,-2 0.8,0 1.5,-0.9 1.5,-2.00001 0,-1.3 0.7,-2 2,-2 1.29999,0 2,0.7 2,2 z"
       id="path7"
       style="fill:#ffffff;stroke-width:0.972342" />
    <path
       d="m 31.180986,6.8416857 c 0,1.3 -0.70001,2 -2,2 -1.3,0 -2,-0.7 -2,-2 0,-1.29999 0.7,-1.99999 2,-1.99999 1.29999,0 2,0.7 2,1.99999 z"
       id="path9"
       style="fill:#ffffff;stroke-width:0.972342" />
  </g>
</svg>
