<?xml version="1.0" encoding="UTF-8" standalone="no"?>
<svg
        width="70"
        height="70"
        version="1.0"
        viewBox="0 0 62.57449 68.063956"
        id="svg77"
        sodipodi:docname="black rook.svg"
        inkscape:version="1.1.2 (0a00cf5339, 2022-02-04)"
        xmlns:inkscape="http://www.inkscape.org/namespaces/inkscape"
        xmlns:sodipodi="http://sodipodi.sourceforge.net/DTD/sodipodi-0.dtd"
        xmlns="http://www.w3.org/2000/svg"
>
  <defs
     id="defs10" />
  <sodipodi:namedview
     id="namedview8"
     pagecolor="#ffffff"
     bordercolor="#666666"
     borderopacity="1.0"
     inkscape:pageshadow="2"
     inkscape:pageopacity="0.0"
     inkscape:pagecheckerboard="0"
     showgrid="false"
     inkscape:zoom="13.223854"
     inkscape:cx="62.50069"
     inkscape:cy="15.161994"
     inkscape:window-width="1846"
     inkscape:window-height="1016"
     inkscape:window-x="0"
     inkscape:window-y="0"
     inkscape:window-maximized="1"
     inkscape:current-layer="svg77" />
  <g
     id="g34"
     transform="translate(8.4175504,10.563956)">
    <path
       d="M 1.0636863,1.2 C 0.36368627,1.9 -0.13630373,4.5 -0.13630373,7 c 0,4 0.49999,5.1 4.00000003,8.5 l 3.99999,3.9 v 20.2 l -5,4.9 c -4.59999,4.6 -5.1,5.4 -4.79999,9 l 0.29999,4 H 47.363687 l 0.3,-4.6 c 0.30001,-4.3 0,-4.8 -4.8,-9.3 l -4.99999,-4.7 V 19.4 l 4,-3.9 c 3.49999,-3.4 3.99999,-4.5 3.99999,-8.5 0,-5.7 -1.2,-7 -6.8,-7 -3.49999,0 -4.5,0.4 -4.9,2 -0.3,1.1 -1.29999,2 -2.3,2 -0.99999,0 -2,-0.9 -2.3,-2 -0.4,-1.7 -1.39999,-2 -6.7,-2 -5.29999,0 -6.3,0.3 -6.700001,2 -0.3,1.1 -1.29999,2 -2.3,2 -0.99999,0 -2,-0.9 -2.29999,-2 -0.40001,-1.6 -1.4,-2 -4.9000097,-2 -2.4,0 -4.9,0.5 -5.6,1.2 z"
       id="path4706"
       style="stroke-width:0.972342" />
    <path
       d="m 33.863687,38.5 c 0,1.2 -1.89999,1.5 -11,1.5 -9.099991,0 -11.000001,-0.3 -11.000001,-1.5 0,-1.2 1.90001,-1.5 11.000001,-1.5 9.10001,0 11,0.3 11,1.5 z"
       id="path3"
       style="fill:#ffffff;stroke-width:0.972342" />
    <path
       d="m 33.863687,20.5 c 0,1.2 -1.89999,1.5 -11,1.5 -9.099991,0 -11.000001,-0.3 -11.000001,-1.5 0,-1.2 1.90001,-1.5 11.000001,-1.5 9.10001,0 11,0.3 11,1.5 z"
       id="path5"
       style="fill:#ffffff;stroke-width:0.972342" />
  </g>
</svg>
