<?xml version="1.0" encoding="UTF-8" standalone="no"?>
<svg
        width="70"
        height="70"
        version="1.0"
        viewBox="0 0 62.923103 68.063955"
        id="svg77"
        sodipodi:docname="white queen.svg"
        inkscape:version="1.1.2 (0a00cf5339, 2022-02-04)"
        xmlns:inkscape="http://www.inkscape.org/namespaces/inkscape"
        xmlns:sodipodi="http://sodipodi.sourceforge.net/DTD/sodipodi-0.dtd"
        xmlns="http://www.w3.org/2000/svg"
>
  <defs
     id="defs24" />
  <sodipodi:namedview
     id="namedview22"
     pagecolor="#ffffff"
     bordercolor="#666666"
     borderopacity="1.0"
     inkscape:pageshadow="2"
     inkscape:pageopacity="0.0"
     inkscape:pagecheckerboard="0"
     showgrid="false"
     inkscape:zoom="11.76011"
     inkscape:cx="35.50137"
     inkscape:cy="34.395938"
     inkscape:window-width="1846"
     inkscape:window-height="1016"
     inkscape:window-x="0"
     inkscape:window-y="0"
     inkscape:window-maximized="1"
     inkscape:current-layer="svg77" />
  <g
     id="g36"
     transform="matrix(0.98045327,0,0,1,0.17430714,3.4071076)">
    <path
       d="m 28.270831,2.2376462 c -2.1,2.09999 -2.3,2.9 -1.5,5.1 1.1,2.9999998 1.2,15.6999898 0.1,19.4999898 -0.8,2.4 -0.8,2.4 -2.4,-1.29999 -2.7,-6.40001 -3.9,-11.80001 -3.2,-15.30001 1.1,-6.0999998 -5.2,-9.6999998 -9.5,-5.3999998 -2.5999996,2.6 -2.5000096,4.10001 0.19999,7.5999998 1.70001,2.10001 2.40001,4.5 2.60001,9.6 0.5,8.1 -0.6,8.70001 -4.40001,2.3 -1.8999896,-3.4 -2.4999996,-5.4 -1.9999896,-7.6 0.39999,-2.39999 0,-3.49999 -1.90001,-5.49999 -2.99999,-2.9999998 -4,-2.9999998 -7.09999997,0.1 -2.79999003,2.8 -2.59999003,5.8 0.50001,8.5 0.99999,0.9 2.49999997,5.2 3.49998997,10.3 1.1,5.3 2.80001,10.1 4.20001,12 1.3,1.8 3.0999996,4.2 3.8999996,5.39999 1.5,2.00001 1.5,2.60001 -0.1,7.70001 -1.1999996,3.7 -1.3999996,6 -0.80001,6.6 3.1,3.1 33.700001,3.9 40.80001,1.1 3.1,-1.2 3.19999,-3.3 0.49999,-9.8 -1.199989,-3 -1.099999,-3.4 2.1,-7.4 3.70001,-4.7 5.20001,-8.3 7.1,-17.8 0.9,-4.1 2.20001,-7.3 3.6,-8.7 2.90001,-3 2.90001,-4.9 -0.2,-7.9 -2.9,-2.9999998 -3.6,-3.0999998 -6.5,-0.7 -1.69999,1.39999 -2.3,3 -2.39999,6.8 -0.2,4.8 -3.6,11.4 -5.900009,11.4 -0.5,0 -0.79999,-3 -0.5,-6.8 0.20001,-5.1 0.9,-7.5 2.600009,-9.6 2.7,-3.4999898 2.8,-4.9999998 0.2,-7.5999998 -2.299999,-2.3 -4.899999,-2.5 -7.499999,-0.59999 -1.4,0.99999 -1.9,2.79999 -2,8.1999898 -0.1,4.7 -0.9,8.5 -2.5,11.9 l -2.3,5 -0.9,-3.4 c -1.00001,-3.8 -0.7,-16.5999998 0.6,-19.2999998 0.5,-1.2 0,-2.5 -1.8,-4.3 -3.1,-3.09999 -4.1,-3.09999 -7.100001,-0.1 z"
       id="path5103"
       style="stroke-width:0.972342" />
    <path
       d="m 47.370832,57.137636 c 1.8,1.8 -2.1,2.9 -11.80001,3.4 -5.599991,0.2 -12.299991,0.10001 -14.699991,-0.39999 -4.7,-0.9 -6.5,-2.80001 -3.4,-3.6 2.8,-0.80001 29.000001,-0.30001 29.900001,0.59999 z"
       id="path3"
       style="fill:#ffffff;stroke-width:0.972342" />
    <path
       d="m 42.970832,46.437646 c 0,4.14367 4.4,0.79999 4,3.29999 l -0.4,2.60001 H 16.970831 l -0.4,-2.7 c -0.4,-2.40001 -0.10001,-2.7 2.59999,-3.10001 5.40001,-0.69999 23.800011,-4.83815 23.800011,-0.1 z"
       id="path5"
       style="fill:#ffffff;stroke-width:0.972342" />
    <path
       d="m 45.170832,39.637636 c 1.6,0.50001 3.1,1.3 3.3,1.8 0.2,0.7 -5.6,1.1 -16.7,1.1 -9.300001,0 -17.000001,-0.4 -17.000001,-0.9 0,-3.1 21.000001,-4.5 30.400001,-2 z"
       id="path7"
       style="fill:#ffffff;stroke-width:0.972342" />
    <path
       d="m 47.170832,35.537636 c 0.2,0.2 2.5,-1.59999 5.099999,-4.09999 l 4.7,-4.5 -0.6,4.09999 c -0.4,2.20001 -1.1,4.90001 -1.6,5.9 -1.00001,1.70001 -1.2,1.70001 -6.799999,-0.3 -9.8,-3.5 -25.800001,-2.79999 -36.400001,1.70001 -1.9999996,0.79999 -3.2999996,-1.3 -4.2999996,-7.30001 l -0.70001,-4.29999 4.8000096,4.79999 c 4.8,4.7 4.8,4.7 5.5,2.30001 0.4,-1.40001 0.8,-4.10001 0.8,-6 0.2,-4.80001 1.6,-7.10001 2.6,-3.90001 0.4,1.3 1.8,4.10001 3.2,6.2 3.2,4.60001 4.3,3.9 6.9,-4.09999 l 1.800001,-5.70001 0.8,3.8 c 0.4,2.10001 1.5,5.2 2.4,6.9 l 1.6,3.10001 2.4,-2.9 c 1.3,-1.6 4.18652,-4.70882 4.1,-7.40001 l 1.8,-4.5 0.7,7.9 c 0.4,4.3 0.9,8.1 1.2,8.3 z"
       id="path9"
       style="fill:#ffffff;stroke-width:0.972342" />
    <path
       d="m 62.570831,15.037646 c -0.2,1.3 -1,2.29999 -1.8,2.29999 -0.8,0 -1.60001,-0.99999 -1.8,-2.29999 -0.3,-1.70001 0.19999,-2.20001 1.8,-2.20001 1.6,0 2.1,0.5 1.8,2.20001 z"
       id="path11"
       style="fill:#ffffff;stroke-width:0.972342" />
    <path
       d="m 4.5708314,15.037646 c -0.2,1.3 -1.00001,2.29999 -1.80001,2.29999 -0.79999,0 -1.6,-0.99999 -1.79999997,-2.29999 -0.3,-1.70001 0.19999997,-2.20001 1.79999997,-2.20001 1.60001,0 2.10001,0.5 1.80001,2.20001 z"
       id="path13"
       style="fill:#ffffff;stroke-width:0.972342" />
    <path
       d="m 49.570832,8.6376362 c 0.3,1.7000098 -0.2,2.1999998 -1.7,2.1999998 -1.4,0 -2.1,-0.6 -2.1,-1.7999998 0,-3.8 3.3,-4.09999 3.8,-0.4 z"
       id="path15"
       style="fill:#ffffff;stroke-width:0.972342" />
    <path
       d="m 17.570831,8.6376362 c 0.3,1.7000098 -0.20001,2.1999998 -1.7,2.1999998 -1.4,0 -2.10001,-0.6 -2.10001,-1.7999998 0,-3.8 3.30001,-4.09999 3.80001,-0.4 z"
       id="path17"
       style="fill:#ffffff;stroke-width:0.972342" />
    <path
       d="m 33.570832,5.6376362 c 0.3,1.70001 -0.2,2.20001 -1.7,2.20001 -1.400001,0 -2.100001,-0.60001 -2.100001,-1.8 0,-3.8 3.300001,-4.1 3.800001,-0.40001 z"
       id="path19"
       style="fill:#ffffff;stroke-width:0.972342" />
  </g>
</svg>
