<?xml version="1.0" encoding="UTF-8" standalone="no"?>
<svg
        width="70"
        height="70"
        version="1.0"
        viewBox="0 0 62.574489 68.063955"
        id="svg77"
        sodipodi:docname="white knight.svg"
        inkscape:version="1.1.2 (0a00cf5339, 2022-02-04)"
        xmlns:inkscape="http://www.inkscape.org/namespaces/inkscape"
        xmlns:sodipodi="http://sodipodi.sourceforge.net/DTD/sodipodi-0.dtd"
        xmlns="http://www.w3.org/2000/svg"
>
  <defs
     id="defs14" />
  <sodipodi:namedview
     id="namedview12"
     pagecolor="#ffffff"
     bordercolor="#666666"
     borderopacity="1.0"
     inkscape:pageshadow="2"
     inkscape:pageopacity="0.0"
     inkscape:pagecheckerboard="0"
     showgrid="false"
     inkscape:zoom="12.887657"
     inkscape:cx="30.688279"
     inkscape:cy="30.377904"
     inkscape:window-width="1846"
     inkscape:window-height="1016"
     inkscape:window-x="0"
     inkscape:window-y="0"
     inkscape:window-maximized="1"
     inkscape:current-layer="svg77" />
  <g
     id="g21"
     transform="translate(3.8201305,9.063965)">
    <path
       d="m 21.843833,2.2 c -1.40001,2.1 -1.50001,2.1 -5.6,0.5 C 9.7438333,0.09999 9.2438333,0.29999 9.3438233,5.69999 c 0.10001,3.70001 -1.19999,7.6 -5.49999,17.3 -7.6,17.1 -7.50001,16.4 -3.8,20.10001 1.8,1.89999 3.8,2.9 4.79999,2.7 1,-0.30001 2.3,0.1 3,0.9 2.1999997,2.3 3.9999997,1.49999 7.3000097,-3.3 2.7,-4.00001 7.99999,-8.4 10.1,-8.4 1.19999,0 -1.1,5.09999 -4.1,8.89999 C 17.543833,48.5 15.943823,51.6 14.943823,55.7 l -0.69999,3.29999 h 43.1 l -0.60001,-10.8 c -0.29999,-6.39999 -1.39999,-13.3 -2.6,-17.19999 -3.79999,-12.2 -12,-21.30001 -20.19999,-22.60001 -2.7,-0.49999 -4,-1.29999 -4.5,-2.79999 -0.8,-2.7 -3.40001,-5.6 -4.9,-5.6 -0.7,0 -1.90001,0.99999 -2.7,2.2 z"
       id="path5398"
       style="stroke-width:0.972342" />
    <path
       d="m 26.344,9 c 0.6,2.7 1,3 4.4,3 7,0 12.8,5.3 17.8,16.1 2.8,6.1 5.2,20.1 4.1,24.3 l -0.6,2.6 h -16 c -12.2,0 -16,-0.3 -16,-1.3 0,-0.7 1.6,-3.6 3.5,-6.5 4.3,-6.3 5.4,-9.1 6.6,-16.2 0.5,-3 1.2,-6.7 1.5,-8.3 0.4,-1.7 0.2,-2.7 -0.5,-2.7 -1.2,0 -5.1,7.1 -5.1,9.3 0,0.7 -1.5,2.1 -3.4,2.9 -1.8,0.9 -5.3,3.9 -7.7,6.7 -4.4,5.1 -6.3,6.4 -5.3,3.6 0.7,-1.8 0,-1.9 -2.7,-0.5 -2.7,1.5 -5.9,-0.4 -5.9,-3.5 0,-1.3 2.8,-8 6.1,-14.9 6.2,-12.5 6.2,-12.5 11,-14.1 2.6,-0.9 5,-2.3 5.3,-3.1 0.8,-2.2 2.2,-0.9 2.9,2.6 z"
       id="path3"
       style="fill:#ffffff;stroke-width:0.972342" />
    <path
       d="m 3.3438233,35.7 c -1.8,0.59999 -1.6,4.3 0.10001,4.3 1.6,0 2.99999,-3 1.89999,-4.00001 -0.4,-0.4 -1.4,-0.49999 -2,-0.29999 z"
       id="path5"
       style="stroke-width:0.972342" />
    <path
       d="m 12.643833,18.09999 c -3.0000097,2.4 -3.3999997,4.9 -0.7,4.9 2.9,0 6.5,-3.4 5.79999,-5.29999 -0.79999,-2.2 -1.9,-2.10001 -5.09999,0.39999 z"
       id="path7"
       style="stroke-width:0.972342" />
    <path
       d="m 15.443823,5.89999 c 0.30001,0.5 -0.1,1.10001 -0.9,1.50001 -0.9,0.29999 -1.49999,0 -1.49999,-0.9 0,-1.6 1.6,-2 2.39999,-0.60001 z"
       id="path9"
       style="fill:#ffffff;stroke-width:0.972342" />
  </g>
</svg>
