<?xml version="1.0" encoding="UTF-8" standalone="no"?>
<svg
        width="70"
        height="70"
        version="1.0"
        viewBox="0 0 62.574488 68.063955"
        id="svg77"
        sodipodi:docname="white king.svg"
        inkscape:version="1.1.2 (0a00cf5339, 2022-02-04)"
        xmlns:inkscape="http://www.inkscape.org/namespaces/inkscape"
        xmlns:sodipodi="http://sodipodi.sourceforge.net/DTD/sodipodi-0.dtd"
        xmlns="http://www.w3.org/2000/svg"
>
  <defs
     id="defs16" />
  <sodipodi:namedview
     id="namedview14"
     pagecolor="#ffffff"
     bordercolor="#666666"
     borderopacity="1.0"
     inkscape:pageshadow="2"
     inkscape:pageopacity="0.0"
     inkscape:pagecheckerboard="0"
     showgrid="false"
     inkscape:zoom="11.524628"
     inkscape:cx="30.933753"
     inkscape:cy="33.883956"
     inkscape:window-width="1846"
     inkscape:window-height="1016"
     inkscape:window-x="0"
     inkscape:window-y="0"
     inkscape:window-maximized="1"
     inkscape:current-layer="svg77" />
  <g
     id="g32"
     transform="translate(3.6297711,2.0859812)">
    <path
       d="m 25.329691,2 c -0.3,1.2 -1.4,2 -2.6,2 -2.7,0 -2.7,2.6 -0.1,4.2 2.6,1.7 2.5,3.39999 -0.5,6.99999 -1.4,1.60001 -3.318423,4.28997 -2.5,5.30001 v 2.4 l -4.5,-2 c -3.7,-1.7 -5.099996,-1.8 -8.3999961,-0.9 -8.6,2.3 -11.9,11.9 -6.60000001,19.1 3.60000001,4.9 6.50000001,11 6.50000001,13.9 0,1.4 0.499999,4.19999 1,6.2 1,3.39999 1.6,3.9 6.1999961,5.3 10.6,3.1 31.90001,0.99999 33.2,-3.3 0.30001,-0.9 0.9,-4.3 1.5,-7.5 1.10001,-6.2 2.00001,-8.20001 6.3,-14.1 8.70001,-12.1 -3.6,-24.9 -17.1,-17.7 -1.9,1.1 -2.09999,0.9 -2.09999,-1.30001 0,-1.29999 -1.1,-3.79999 -2.50001,-5.4 -3,-3.6 -3.1,-5.29999 -0.5,-6.99999 2.60001,-1.6 2.60001,-4.2 0,-4.2 -0.99999,0 -2.4,-0.9 -3,-2 -0.6,-1.1 -1.7,-2 -2.4,-2 -0.8,0 -1.6,0.9 -1.9,2 z"
       id="path4987"
       style="stroke-width:0.972342" />
    <g
       id="g23">
      <path
         d="m 40.529691,59.4 c 2.7,1.7 -1.4,2.6 -12.4,2.5 -10.7,0 -16.8,-1 -13.5,-2.20001 0.8,-0.29999 2.2,-0.79999 3,-1.09999 2.3,-0.8 21.3,-0.2 22.9,0.8 z"
         id="path3"
         style="fill:#ffffff;stroke-width:0.972342" />
      <path
         d="m 41.929701,47.6 c 3.69999,0.59999 3.69999,0.59999 3.09999,4.19999 -0.39999,2.10001 -0.7,3.80001 -0.79999,3.90001 -0.10001,0.1 -2.20001,-0.30001 -4.60001,-0.8 -4.6,-1.1 -24.2,-0.7 -27.1,0.49999 -1.3,0.60001 -1.8,-0.1 -2.199996,-2.99999 -0.4000001,-2.1 -0.5000001,-4 -0.2,-4.20001 0.2,-0.2 3.699996,-0.69999 7.699996,-1.19999 7,-0.7 16.1,-0.5 24.10001,0.6 z"
         id="path5"
         style="fill:#ffffff;stroke-width:0.972342" />
      <path
         d="m 51.929691,25.8 c 3,3 2.60001,8.4 -0.9,13.4 l -3.1,4.29999 L 41.029701,43.2 c -12.70001,-0.5 -13.30001,-1.1 -8.80001,-10.00001 4.5,-9.09999 14.3,-12.79999 19.7,-7.39999 z"
         id="path7"
         style="fill:#ffffff;stroke-width:0.972342" />
      <path
         d="m 16.229691,25.49999 c 3.1,1.8 5,3.90001 6.9,7.9 4,8.20001 3.6,9 -6.4,9.9 C 7.0296949,44.1 6.1296949,43.7 2.6296949,36.5 0.72969489,32.49999 0.62969489,31.9 2.0296939,28.6 c 2.500001,-5.9 7.500001,-7 14.1999971,-3.10001 z"
         id="path9"
         style="fill:#ffffff;stroke-width:0.972342" />
      <path
         d="m 30.429691,17.19999 c 2.50001,2.5 0.2,13.80001 -2.8,13.80001 -1.6,0 -4,-5.70001 -4,-9.30001 0,-3.6 1.5,-5.69999 4,-5.69999 0.9,0 2.1,0.5 2.8,1.19999 z"
         id="path11"
         style="fill:#ffffff;stroke-width:0.972342" />
    </g>
  </g>
</svg>
