<?xml version="1.0" encoding="UTF-8" standalone="no"?>
<svg
        width="70"
        height="70"
        version="1.0"
        viewBox="0 0 62.574489 68.063955"
        id="svg77"
        sodipodi:docname="white rook.svg"
        inkscape:version="1.1.2 (0a00cf5339, 2022-02-04)"
        xmlns:inkscape="http://www.inkscape.org/namespaces/inkscape"
        xmlns:sodipodi="http://sodipodi.sourceforge.net/DTD/sodipodi-0.dtd"
        xmlns="http://www.w3.org/2000/svg"
>
  <defs
     id="defs14" />
  <sodipodi:namedview
     id="namedview12"
     pagecolor="#ffffff"
     bordercolor="#666666"
     borderopacity="1.0"
     inkscape:pageshadow="2"
     inkscape:pageopacity="0.0"
     inkscape:pagecheckerboard="0"
     showgrid="false"
     inkscape:zoom="12.97804"
     inkscape:cx="25.080828"
     inkscape:cy="38.565145"
     inkscape:window-width="1846"
     inkscape:window-height="1016"
     inkscape:window-x="0"
     inkscape:window-y="0"
     inkscape:window-maximized="1"
     inkscape:current-layer="svg77" />
  <g
     id="g21"
     transform="translate(8.4230671,9.474863)">
    <path
       d="m 0.56417681,1.8890917 c -1,1.1 -1.70000001,3.49999 -1.70000001,5.9 0,3.5000003 0.60000001,4.6000003 4.5,8.2000003 l 4.5,4.1 v 20.6 l -5,4.89999 c -4.59999,4.60001 -5.1,5.4 -4.8,9 l 0.3,4.00001 H 47.364177 l 0.3,-4.00001 c 0.3,-3.6 -0.19999,-4.39999 -4.8,-9 l -5,-4.89999 v -20.6 l 4.5,-4.1 c 4,-3.7 4.5,-4.7 4.5,-8.4000003 0,-5.4 -2.2,-7.5 -7.8,-7.5 -3.1,0 -4.5,0.5 -5.4,2 -0.7,1.1 -1.8,2 -2.39999,2 -0.70001,0 -1.40001,-0.9 -1.70001,-2 -0.4,-1.7 -1.4,-2 -6.7,-2 -5.29999,0 -6.3,0.3 -6.7,2 -0.3,1.1 -1,2 -1.7,2 -0.6,0 -1.7,-0.9 -2.4,-2 -1.7,-2.7 -9.2000002,-2.8 -11.50000019,-0.2 z"
       id="path5181"
       style="stroke-width:0.972342" />
    <path
       d="m 43.864187,53.089092 c 0,1.9 -0.70001,2 -21.00001,2 -20.3000002,0 -20.9999902,-0.1 -20.9999902,-2 0,-1.9 0.69999,-2 20.9999902,-2 20.3,0 21.00001,0.1 21.00001,2 z"
       id="path3"
       style="fill:#ffffff;stroke-width:0.972342" />
    <path
       d="m 37.364187,44.089092 2.9,3 H 5.4641868 l 2.9,-3 c 2.9000102,-3.00001 2.9000002,-3.00001 14.4999902,-3.00001 11.6,0 10.57902,1.57315 14.50001,3.00001 z"
       id="path5"
       style="fill:#ffffff;stroke-width:0.972342" />
    <path
       d="m 33.864177,29.089092 v 9 h -22 v -18 h 22 z"
       id="path7"
       style="fill:#ffffff;stroke-width:0.972342" />
    <path
       d="m 10.064177,6.2890817 c 0.2,1.30001 1.1,2.40001 2.10001,2.60001 2.99999,0.6 6.69999,-0.7 6.69999,-2.3 0,-1.1 1.1,-1.5 4,-1.5 2.9,0 4,0.4 4,1.5 0,1.6 3.7,2.9 6.7,2.3 1,-0.2 1.9,-1.4 2.1,-2.60001 0.3,-1.89999 0.9,-2.29999 3.50001,-1.99999 2.79999,0.3 3.19999,0.7 3.49999,3.7 0.30001,2.7000003 -0.2,3.8000003 -3,6.2000003 -3.3,2.8 -3.5,2.8 -16.6,2.9 -13,0 -13.4000002,-0.1 -16.8000002,-2.8 -2.5,-2 -3.4,-3.5 -3.4,-5.8000003 0,-3.80001 0.6,-4.4 4.1,-4.4 2.1,0 2.8,0.5 3.1000002,2.19999 z"
       id="path9"
       style="fill:#ffffff;stroke-width:0.972342" />
  </g>
</svg>
