<?xml version="1.0" encoding="UTF-8" standalone="no"?>
<svg
        width="70"
        height="70"
        version="1.0"
        viewBox="0 0 62.574489 68.063955"
        id="svg77"
        sodipodi:docname="white bishop.svg"
        inkscape:version="1.1.2 (0a00cf5339, 2022-02-04)"
        xmlns:inkscape="http://www.inkscape.org/namespaces/inkscape"
        xmlns:sodipodi="http://sodipodi.sourceforge.net/DTD/sodipodi-0.dtd"
        xmlns="http://www.w3.org/2000/svg"
>
  <defs
     id="defs18" />
  <sodipodi:namedview
     id="namedview16"
     pagecolor="#ffffff"
     bordercolor="#666666"
     borderopacity="1.0"
     inkscape:pageshadow="2"
     inkscape:pageopacity="0.0"
     inkscape:pagecheckerboard="0"
     showgrid="false"
     height="70px"
     inkscape:zoom="11.081134"
     inkscape:cx="32.532772"
     inkscape:cy="35.240076"
     inkscape:window-width="1846"
     inkscape:window-height="1016"
     inkscape:window-x="0"
     inkscape:window-y="0"
     inkscape:window-maximized="1"
     inkscape:current-layer="svg77" />
  <path
     d="m 27.535211,19.6 c -0.4,0.4 -0.69999,1.6 -0.69999,2.6 0,1 -0.7,1.8 -1.50001,1.8 -0.79999,0 -1.5,0.9 -1.5,2 0,1.1 0.70001,2 1.5,2 0.80001,0 1.50001,0.9 1.50001,2 0,1.3 0.69999,2 2,2 1.29999,0 2,-0.7 2,-2 0,-1.1 0.7,-2 1.49999,-2 0.80001,0 1.5,-0.9 1.5,-2 0,-1.1 -0.6,-2 -1.39999,-2 -0.80001,0 -1.6,-1 -1.8,-2.2 -0.30001,-2.2 -1.90001,-3.3 -3.10001,-2.2 z"
     id="path3"
     style="fill:#ffffff;stroke-width:0.972342" />
  <g
     id="g45"
     transform="matrix(1,0,0,0.99191739,2.2307427,1.758701e-7)">
    <path
       d="m 23.835,2 c -2.2,2.2 -2.6,5.1 -1,8 0.8,1.5 0.4,2 -2,3 -3.5,1.5 -9.7,8 -11.1,11.8 -1.4,3.7 -0.2,9 2.8,13 2.5,3.3 2.6,5.6 0.8,10.4 -0.5,1.2 0.2,2.3 2.5,3.6 3,1.9 3.1,2 0.8,2.6 -1.3,0.3 -4.9,0.6 -8.1,0.6 -6.5,0 -9.1,1 -10.8,4.1 -1.5,2.8 3.3,10.4 5.9,9.4 0.9,-0.4 5.7,-1.4 10.5,-2.1 4.9,-0.7 10.1,-2.1 11.7,-3 2.6,-1.6 3,-1.6 6.5,0 2,1 6.9,2.2 10.9,2.7 3.9,0.5 8.2,1.4 9.6,2 2.2,1 2.8,0.7 5.2,-2.2 3.4,-4.1 3.5,-5.3 0.3,-8.4 -2,-2.1 -3.4,-2.5 -8.7,-2.5 -3.5,0 -7.3,-0.3 -8.6,-0.6 -2.3,-0.6 -2.2,-0.7 0.8,-2.6 2.3,-1.3 3,-2.4 2.5,-3.6 -1.8,-4.7 -1.6,-7 0.8,-10.6 3.5,-5.1 4.1,-8.7 2.2,-13.2 -2,-4.8 -3.9,-7 -9.2,-10.4 -3.1,-2 -3.9,-3 -3.2,-4.1 2.6,-4.2 -0.9,-9.9 -6.1,-9.9 -1.7,0 -3.9,0.9 -5,2 z"
       id="path5278"
       style="stroke-width:0.972342" />
    <path
       d="m 34.235221,55.5 c 2.9,1.4 7.9,2.8 11.59999,3.1 7.70001,0.8 10.60001,2 9.10001,3.8 -1.6,1.9 -15.5,0 -21.50001,-2.9 -5,-2.4 -5,-2.4 -7.7,-0.4 -4.09999,2.9 -19.7999904,5.3 -22.7000004,3.5 -2.40000002,-1.5 0.8,-3.6 5.4,-3.6 6.2000104,0 13.5000004,-1.8 16.4000004,-4 3.2,-2.5 3.30001,-2.5 9.40001,0.5 z"
       id="path5"
       style="fill:#ffffff;stroke-width:0.972342" />
    <path
       d="m 40.035221,47.8 c 1.69999,1.7 -2.4,2.3 -13.2,2 -9.5,-0.3 -12.30001,-1.6 -6.5,-3 4.39999,-1 18.4,-0.3 19.7,1 z"
       id="path7"
       style="fill:#ffffff;stroke-width:0.972342" />
    <path
       d="m 38.835211,41.7 c 0,1.6 -1.19999,1.8 -10.3,1.8 -9.39999,0 -10.29999,-0.2 -9.9,-1.8 0.4,-1.5 1.70001,-1.7 10.3,-1.7 8.8,0 9.9,0.2 9.9,1.7 z"
       id="path9"
       style="fill:#ffffff;stroke-width:0.972342" />
    <path
       d="m 36.435221,17.2 c 6.49999,4.4 9,8.8 7.79999,13.7 -1.1,4.6 -4.79999,6 -15.7,6 -10.29999,0.1 -14.4,-1.6 -15.19999,-6.2 -1.1,-5.5 2.79999,-11.2 9.99999,-15 4.5,-2.40001 7.8,-2 13.10001,1.5 z"
       id="path11"
       style="fill:#ffffff;stroke-width:0.972342" />
    <path
       d="m 31.335221,6.5 c 0,2.2 -3.10001,3.3 -4.70001,1.7 -1.7,-1.7 -0.1,-4.4 2.40001,-4 1.49999,0.2 2.3,1 2.3,2.3 z"
       id="path13"
       style="fill:#ffffff;stroke-width:0.972342" />
  </g>
</svg>
