<?xml version="1.0" encoding="UTF-8" standalone="no"?>
<svg
        width="70"
        height="70"
        version="1.0"
        viewBox="0 0 62.574489 68.063956"
        id="svg77"
        sodipodi:docname="black pawn.svg"
        inkscape:version="1.1.2 (0a00cf5339, 2022-02-04)"
        xmlns:inkscape="http://www.inkscape.org/namespaces/inkscape"
        xmlns:sodipodi="http://sodipodi.sourceforge.net/DTD/sodipodi-0.dtd"
        xmlns="http://www.w3.org/2000/svg"
>
  <defs
     id="defs6" />
  <sodipodi:namedview
     id="namedview4"
     pagecolor="#ffffff"
     bordercolor="#666666"
     borderopacity="1.0"
     inkscape:pageshadow="2"
     inkscape:pageopacity="0.0"
     inkscape:pagecheckerboard="0"
     showgrid="false"
     fit-margin-top="0"
     fit-margin-left="0"
     fit-margin-right="0"
     fit-margin-bottom="0"
     inkscape:zoom="4.4413491"
     inkscape:cx="-28.032023"
     inkscape:cy="23.528887"
     inkscape:window-width="1846"
     inkscape:window-height="1016"
     inkscape:window-x="0"
     inkscape:window-y="0"
     inkscape:window-maximized="1"
     inkscape:current-layer="svg77" />
  <path
     d="m 27.143416,9.5161456 c -3.6,1.4999994 -5.7,5.5999994 -4.7,9.1999994 0.8,2.7 0.5,3.5 -2.300001,6.3 -4,4 -4.3,7.8 -1,12.6 l 2.300001,3.4 -3.900001,2.8 c -4.7,3.4 -7.3,9 -8.2999999,17.4 L 8.4189377,67.997914 H 30.143416 c 17.506892,0.148594 24.012135,0 24.012135,0 l -1.61018,-7.262047 c -1.878,-6.817003 -5.001955,-15.119725 -9.601955,-17.819725 l -2.9,-1.7 2.1,-2.9 c 1.4,-1.8 2.2,-4.4 2.2,-7 0,-3.3 -0.6,-4.5 -3.3,-6.9 -2.7,-2.5 -3,-3.2 -2.2,-5.4 1,-2.8 0.1,-6.4 -2.2,-8.3 -2.1,-1.6999994 -6.9,-2.2999994 -9.5,-1.1999994 z"
     id="path75"
     sodipodi:nodetypes="ccscccccccccccsccccc" />
</svg>
