<?xml version="1.0" encoding="UTF-8" standalone="no"?>
<svg
        width="70"
        height="70"
        version="1.0"
        viewBox="0 0 62.574489 68.063955"
        id="svg77"
        sodipodi:docname="black knight.svg"
        inkscape:version="1.1.2 (0a00cf5339, 2022-02-04)"
        xmlns:inkscape="http://www.inkscape.org/namespaces/inkscape"
        xmlns:sodipodi="http://sodipodi.sourceforge.net/DTD/sodipodi-0.dtd"
        xmlns="http://www.w3.org/2000/svg"
>
  <defs
     id="defs12" />
  <sodipodi:namedview
     id="namedview10"
     pagecolor="#ffffff"
     bordercolor="#666666"
     borderopacity="1.0"
     inkscape:pageshadow="2"
     inkscape:pageopacity="0.0"
     inkscape:pagecheckerboard="0"
     showgrid="false"
     width="70px"
     inkscape:zoom="13.072078"
     inkscape:cx="30.637823"
     inkscape:cy="65.827333"
     inkscape:window-width="1846"
     inkscape:window-height="1016"
     inkscape:window-x="0"
     inkscape:window-y="0"
     inkscape:window-maximized="1"
     inkscape:current-layer="svg77" />
  <g
     id="g37"
     transform="translate(3.9152923,9.896338)">
    <path
       d="m 22.545161,1.2676171 c -1.6,1.6 -2.5,1.8 -4.89999,1.00001 -1.7,-0.50001 -4.2,-1.20001 -5.70001,-1.50000999 -2.79999,-0.6 -2.79999,-0.6 -2.79999,4.29999999 0,3.9 -1.3,7.8999999 -6.1,18.8000099 -5.00001,11.2 -6,14.19999 -5.20001,16.29999 0.9,2.7 5.20001,5.2 8.90001,5.2 1.3,0 2.4,0.4 2.4,0.9 0,0.50001 0.79999,0.9 1.8,0.9 0.9,0 2.9,-1.99999 4.5,-4.5 2.39999,-3.79999 7.99999,-8.49999 9.99999,-8.49999 1.30001,0 -1.39999,5.2 -5.19999,10.29999 -2.1,2.80001 -4.1,6.10001 -4.4,7.20001 -0.30001,1.09999 -0.8,3 -1.20001,4.19999 l -0.59999,2.3 h 43.09999 v -8.3 c -0.1,-15.6 -4.19999,-27.9 -12.1,-35.8 -4.1,-4.0999999 -9.29999,-6.8999999 -12.79999,-6.8999999 -1.2,0 -2.30001,-1.09999 -2.9,-2.89999 -1.5,-4.19999999 -4.30001,-5.50001 -6.80001,-3.00001 z"
       id="path4803"
       style="stroke-width:0.972342" />
    <path
       d="m 3.145171,37.567627 c 0,0.79999 -0.7,1.6 -1.50001,2 -1.49999001,0.5 -2.09999001,-1.40001 -0.79999001,-2.7 1.10000001,-1.20001 2.30000001,-0.80001 2.30000001,0.7 z"
       id="path3"
       style="fill:#ffffff;stroke-width:0.972342" />
    <path
       d="m 17.145161,17.567627 c 0,1.6 -3.69999,4.59999 -5.69999,4.59999 -1.6,0 -1.70001,-3.2 -0.1,-4.79999 1.69999,-1.70001 5.79999,-1.50001 5.79999,0.2 z"
       id="path5"
       style="fill:#ffffff;stroke-width:0.972342" />
    <path
       d="m 35.145161,13.667617 c 3.40001,1.8 8.90001,8.40001 11.9,14.20001 4.30001,8.69999 6.80001,25.29999 3.6,25.29999 -1.4,0 -1.69999,-1.1 -2.99999,-10.69999 -1,-8.00001 -4.40001,-15.10001 -10.1,-21.3 -3.10001,-3.2 -6.4,-6.20001 -7.5,-6.5 -1.00001,-0.40001 -1.90001,-1.10001 -1.90001,-1.6 0,-1.4 3.70001,-1.1 7,0.59999 z"
       id="path7"
       style="fill:#ffffff;stroke-width:0.972342" />
  </g>
</svg>
